<svg width="12" height="12" viewBox="0 0 12 12" fill="none"
  xmlns="http://www.w3.org/2000/svg">
  <circle cx="6" cy="6" r="6" fill="url(#paint0_linear_4539_223215)"/>
  <g clip-path="url(#clip0_4539_223215)">
    <path fill-rule="evenodd" clip-rule="evenodd" d="M6.87344 9.87598C6.87344 9.87598 9.13511 9.59764 9.13511 7.33598C9.13511 6.32264 8.54844 5.07764 8.15344 4.35431L7.80178 3.75931C7.83472 3.98792 7.82168 4.2208 7.76344 4.44431C7.68699 4.64043 7.56999 4.81819 7.42011 4.96598C7.40303 4.45011 7.25073 3.94779 6.97844 3.50931C6.96937 3.49585 6.96025 3.48229 6.95103 3.46858C6.90769 3.40415 6.86203 3.33626 6.80844 3.25931C6.76011 3.18598 6.64844 3.03764 6.64844 3.03764C6.36046 2.66767 6.00256 2.35791 5.59511 2.12598C5.73735 2.42011 5.82273 2.73847 5.84678 3.06431C5.83511 3.44764 5.71511 3.67931 5.13844 4.42764C4.56178 5.17598 4.70511 6.29598 4.70511 6.29598C4.65918 6.13973 4.5966 5.98886 4.51844 5.84598C4.36844 5.55431 3.75678 5.21098 3.71844 5.19098L3.71853 5.1912C3.73606 5.23501 4.00946 5.91845 3.63511 6.38264C3.6205 6.40087 3.60599 6.41896 3.59157 6.43692C3.13551 7.00523 2.77999 7.44825 2.88178 8.31098C3.01495 9.44128 4.30034 9.75855 4.89296 9.844C4.51764 9.66318 4.3034 9.17784 4.27346 8.90171C4.25176 8.75606 4.2597 8.60754 4.2968 8.46504C4.36482 8.20694 4.50129 7.972 4.69179 7.78504C4.79216 7.67746 4.88508 7.58377 4.97047 7.49767C5.29914 7.16628 5.51625 6.94738 5.6168 6.48171C5.66096 6.22856 5.66882 5.97041 5.64013 5.71504C5.93925 5.90496 6.19255 6.15883 6.38179 6.45837C6.53053 6.69255 6.61291 6.96271 6.62013 7.24004C6.70077 7.16073 6.7638 7.06533 6.80513 6.96004C6.83575 6.83861 6.84254 6.71239 6.82513 6.58837C6.82513 6.58837 7.56179 7.60837 7.54179 8.51337C7.51599 9.61191 6.85629 9.8611 6.81393 9.87598H6.87344Z" fill="white"/>
  </g>
  <defs>
    <linearGradient id="paint0_linear_4539_223215" x1="0" y1="0" x2="12" y2="12" gradientUnits="userSpaceOnUse">
      <stop stopColor="#FFC700"/>
      <stop offset="1" stopColor="#FF3D00"/>
    </linearGradient>
    <clipPath id="clip0_4539_223215">
      <rect width="8" height="8" fill="white" transform="translate(2 2.00098)"/>
    </clipPath>
  </defs>
</svg>
