<svg width="131" height="31" viewBox="0 0 131 31" fill="none" xmlns="http://www.w3.org/2000/svg">
<g clip-path="url(#clip0_1145_1153)">
<path fill-rule="evenodd" clip-rule="evenodd" d="M51.2164 14.0886C50.5868 13.7175 49.8461 13.532 48.9944 13.532C47.8464 13.532 46.9206 13.9402 46.1428 14.7565C45.3652 15.5729 44.9948 16.6118 44.9948 17.8735C44.9948 17.9477 44.9948 18.0219 44.9948 18.059C44.9948 21.3614 46.9945 24.2187 49.8091 25.4803C49.5869 25.4803 49.3647 25.5174 49.1426 25.5174C48.0686 25.5174 47.0686 25.3318 46.1799 24.9608C45.254 24.5897 44.4393 23.996 43.6986 23.2539C43.032 22.5488 42.4766 21.7326 42.1062 20.7678C41.7359 19.8401 41.5137 18.8753 41.5137 17.9105C41.5137 16.8716 41.6988 15.9439 42.0321 15.0533C42.3654 14.1628 42.8838 13.3835 43.5875 12.6785C44.3282 11.8622 45.1799 11.2685 46.1428 10.8603C47.1057 10.4521 48.1056 10.2295 49.1796 10.2295C50.9572 10.2295 52.4755 10.749 53.7717 11.7509C55.0679 12.7527 55.9196 14.1257 56.327 15.8326C51.4756 15.7955 54.105 15.8697 51.2164 14.0886ZM45.9947 20.7678C46.0317 20.8048 46.1058 20.8791 46.1428 20.9162C46.9206 21.7326 47.9204 22.1407 49.1055 22.1407C50.0313 22.1407 50.772 21.9551 51.3646 21.547C54.068 19.803 51.2164 19.803 56.29 19.803C55.8455 21.5841 54.9938 22.957 53.7346 23.996C52.8829 24.6639 51.9571 25.1093 50.8831 25.3318C48.624 24.6269 46.8094 22.957 45.9947 20.7678Z" fill="url(#paint0_linear_1145_1153)"/>
<path fill-rule="evenodd" clip-rule="evenodd" d="M62.1789 25.52H58.9199V22.4031C59.4754 20.1767 60.6235 19.2119 62.1789 17.7276C62.1789 20.3251 62.1789 22.9225 62.1789 25.52ZM62.29 17.6906L66.1044 12.1246C66.6599 11.3453 67.1784 11.0114 68.2894 11.0485H70.6595L65.66 17.9131L71.6594 25.52H69.8078C68.6967 25.52 67.4376 24.9634 66.808 24.0358L62.29 17.6906ZM58.9199 20.8446V12.3843V8.07994C58.9199 7.11517 59.6977 6.33594 60.6605 6.33594H62.1789V7.44913V17.0597C60.8457 18.2471 59.6977 19.1377 58.9199 20.8446Z" fill="url(#paint1_linear_1145_1153)"/>
<path fill-rule="evenodd" clip-rule="evenodd" d="M27.2291 17.7992C27.2291 19.1351 27.5995 20.2111 28.3402 20.9904C29.0809 21.7696 30.0807 22.1778 31.3398 22.1778C32.599 22.1778 33.5619 21.7696 34.3025 20.9904C35.0432 20.1741 35.4136 19.098 35.4136 17.7621C35.4136 16.5377 35.0432 15.5357 34.2655 14.7565C33.4878 13.9773 32.525 13.5691 31.3398 13.5691C30.1177 13.5691 29.1549 13.9773 28.3772 14.7565C27.5995 15.4986 27.2291 16.5376 27.2291 17.7992ZM23.748 17.8363C23.748 16.8344 23.9332 15.8697 24.3036 14.942C24.6739 14.0144 25.2294 13.198 25.9331 12.493C26.6737 11.7509 27.4884 11.1943 28.3772 10.8232C29.3031 10.415 30.2289 10.2295 31.2288 10.2295C32.2658 10.2295 33.2286 10.415 34.1174 10.749C35.0062 11.0829 35.8209 11.6024 36.5616 12.3075C37.3023 13.0496 37.8948 13.8659 38.3021 14.8307C38.7095 15.7955 38.9317 16.7602 38.9317 17.7621C38.9317 18.8753 38.7465 19.8772 38.3762 20.8048C38.0058 21.7326 37.4874 22.5488 36.7467 23.2909C36.0061 24.0331 35.1913 24.5897 34.3025 24.9979C33.3767 25.369 32.3768 25.5545 31.3029 25.5545C30.2289 25.5545 29.229 25.369 28.3402 24.9608C27.4514 24.5897 26.6366 23.996 25.896 23.2168C25.1924 22.4747 24.6739 21.6212 24.3036 20.7306C23.9332 19.803 23.748 18.8382 23.748 17.8363Z" fill="url(#paint2_linear_1145_1153)"/>
<path fill-rule="evenodd" clip-rule="evenodd" d="M129.446 9.41406H131.001V15.0171C130.372 13.3474 129.186 11.9373 127.705 11.0096C127.779 10.1191 128.52 9.41406 129.446 9.41406ZM131.001 25.1843H128.594C128.112 25.1843 127.705 24.7761 127.705 24.2938V24.1825C126.483 25.0359 124.965 25.5183 123.373 25.5183C119.15 25.5183 115.743 22.1045 115.743 17.9115C115.743 13.7184 119.15 10.3046 123.373 10.3046C127.594 10.3046 131.001 13.7184 131.001 17.9115V23.7001V25.1843ZM123.373 13.4958C125.779 13.4958 127.705 15.4624 127.705 17.9115C127.705 20.3605 125.779 22.3271 123.373 22.3271C120.965 22.3271 119.04 20.3605 119.04 17.9115C119.002 15.4624 120.965 13.4958 123.373 13.4958Z" fill="url(#paint3_linear_1145_1153)"/>
<path fill-rule="evenodd" clip-rule="evenodd" d="M0 25.1841H2.40717C2.8886 25.1841 3.29597 24.7759 3.29597 24.2935V24.1822C4.51807 25.0356 6.03643 25.518 7.62887 25.518C11.8507 25.518 15.2578 22.1042 15.2578 17.9112C15.2578 13.7182 11.8507 10.3044 7.62887 10.3044C3.40706 10.3044 0 13.7182 0 17.9112V23.6998V25.1841ZM1.5554 6H0V15.054C0.629567 13.3842 1.81464 11.9742 3.29597 11.0465V7.74401C3.29597 6.77924 2.51826 6 1.5554 6ZM7.62887 13.4955C5.2217 13.4955 3.29597 15.4622 3.29597 17.9112C3.29597 20.3602 5.2217 22.3269 7.62887 22.3269C10.036 22.3269 11.9617 20.3602 11.9617 17.9112C11.9617 15.4622 10.036 13.4955 7.62887 13.4955Z" fill="url(#paint4_linear_1145_1153)"/>
<path fill-rule="evenodd" clip-rule="evenodd" d="M92.8799 25.52V6.33594H91.3245C90.3617 6.33594 89.584 7.11517 89.584 8.07994V25.52H92.8799Z" fill="url(#paint5_linear_1145_1153)"/>
<path fill-rule="evenodd" clip-rule="evenodd" d="M106.781 25.5174H110.078V17.1313C110.078 15.4245 111.484 14.0515 113.151 14.0515V10.749C109.633 10.749 106.781 13.6433 106.781 17.1313V25.5174ZM106.781 14.4968V13.6062V13.1981V10.7119H108.337C108.818 10.7119 109.263 10.8974 109.559 11.2314C108.337 11.9735 107.337 13.1238 106.781 14.4968Z" fill="url(#paint6_linear_1145_1153)"/>
<path fill-rule="evenodd" clip-rule="evenodd" d="M97.6574 9.23025V6.33594H99.212C100.176 6.33594 100.99 7.11517 100.99 8.07994V9.23025V11.0485H103.249V14.0541H101.027V19.0634C101.027 20.3622 101.842 21.5125 102.99 21.9578C104.508 22.5886 104.138 22.6257 104.174 23.9986V25.5571C100.62 25.5571 97.694 22.6257 97.694 19.0634V14.017H95.4717V11.0114H97.694V9.23025H97.6574Z" fill="url(#paint7_linear_1145_1153)"/>
<path fill-rule="evenodd" clip-rule="evenodd" d="M86.9914 10.7119H83.6955V19.098C83.6955 20.8049 82.2881 22.1779 80.6216 22.1779C78.9181 22.1779 77.5479 20.7677 77.5479 19.098V13.6433V13.6062V10.7119H75.9925C75.0296 10.7119 74.252 11.5283 74.252 12.493V13.6062V13.6433V19.098C74.252 22.6231 77.1405 25.4803 80.6216 25.4803C84.1398 25.4803 86.9914 22.586 86.9914 19.098V10.7119ZM86.9914 21.7697V22.6602V23.0684V25.5546H85.436C84.9546 25.5546 84.5101 25.369 84.2139 25.035C85.436 24.2558 86.4359 23.1055 86.9914 21.7697Z" fill="url(#paint8_linear_1145_1153)"/>
<path d="M31.3291 19.27C32.0857 19.27 32.6991 18.6554 32.6991 17.8972C32.6991 17.139 32.0857 16.5244 31.3291 16.5244C30.5724 16.5244 29.959 17.139 29.959 17.8972C29.959 18.6554 30.5724 19.27 31.3291 19.27Z" fill="#5275FB"/>
<path d="M7.76364 19.27C8.52031 19.27 9.13372 18.6554 9.13372 17.8972C9.13372 17.139 8.52031 16.5244 7.76364 16.5244C7.00696 16.5244 6.39355 17.139 6.39355 17.8972C6.39355 18.6554 7.00696 19.27 7.76364 19.27Z" fill="#5275FB"/>
<path fill-rule="evenodd" clip-rule="evenodd" d="M21.1465 21.1474V25.52H17.8506V21.1421L19.0168 22.3107C19.2843 22.5788 19.7181 22.5788 19.9855 22.3107L21.1465 21.1474ZM21.1465 20.5003V6.33594H19.5911C18.6282 6.33594 17.8506 7.11517 17.8506 8.07994V20.495L19.3397 21.9871C19.4289 22.0764 19.5735 22.0764 19.6627 21.9871L21.1465 20.5003Z" fill="url(#paint9_linear_1145_1153)"/>
</g>
<defs>
<linearGradient id="paint0_linear_1145_1153" x1="48.9203" y1="10.2295" x2="48.9203" y2="25.5174" gradientUnits="userSpaceOnUse">
<stop stop-color="#547AFF"/>
<stop offset="1" stop-color="#4551DE"/>
</linearGradient>
<linearGradient id="paint1_linear_1145_1153" x1="65.2897" y1="6.33594" x2="65.2897" y2="25.52" gradientUnits="userSpaceOnUse">
<stop stop-color="#547AFF"/>
<stop offset="1" stop-color="#4551DE"/>
</linearGradient>
<linearGradient id="paint2_linear_1145_1153" x1="31.3399" y1="10.2295" x2="31.3399" y2="25.5545" gradientUnits="userSpaceOnUse">
<stop stop-color="#547AFF"/>
<stop offset="1" stop-color="#4551DE"/>
</linearGradient>
<linearGradient id="paint3_linear_1145_1153" x1="123.373" y1="9.41406" x2="123.373" y2="25.5183" gradientUnits="userSpaceOnUse">
<stop stop-color="#547AFF"/>
<stop offset="1" stop-color="#4551DE"/>
</linearGradient>
<linearGradient id="paint4_linear_1145_1153" x1="7.62887" y1="6" x2="7.62887" y2="25.518" gradientUnits="userSpaceOnUse">
<stop stop-color="#547AFF"/>
<stop offset="1" stop-color="#4551DE"/>
</linearGradient>
<linearGradient id="paint5_linear_1145_1153" x1="91.232" y1="6.33594" x2="91.232" y2="25.52" gradientUnits="userSpaceOnUse">
<stop stop-color="#547AFF"/>
<stop offset="1" stop-color="#4551DE"/>
</linearGradient>
<linearGradient id="paint6_linear_1145_1153" x1="109.966" y1="10.7119" x2="109.966" y2="25.5174" gradientUnits="userSpaceOnUse">
<stop stop-color="#547AFF"/>
<stop offset="1" stop-color="#4551DE"/>
</linearGradient>
<linearGradient id="paint7_linear_1145_1153" x1="99.8304" y1="6.33594" x2="99.8304" y2="25.5571" gradientUnits="userSpaceOnUse">
<stop stop-color="#547AFF"/>
<stop offset="1" stop-color="#4551DE"/>
</linearGradient>
<linearGradient id="paint8_linear_1145_1153" x1="80.6216" y1="10.7119" x2="80.6216" y2="25.5546" gradientUnits="userSpaceOnUse">
<stop stop-color="#547AFF"/>
<stop offset="1" stop-color="#4551DE"/>
</linearGradient>
<linearGradient id="paint9_linear_1145_1153" x1="19.4985" y1="6.33594" x2="19.4985" y2="25.52" gradientUnits="userSpaceOnUse">
<stop stop-color="#547AFF"/>
<stop offset="1" stop-color="#4551DE"/>
</linearGradient>
<clipPath id="clip0_1145_1153">
<rect width="131" height="31" fill="white"/>
</clipPath>
</defs>
</svg>
