<svg width="158" height="158" viewBox="0 0 158 158" fill="none" xmlns="http://www.w3.org/2000/svg">
<path d="M69.5 5.48483C75.3786 2.0908 82.6214 2.0908 88.5 5.48483L137.916 34.0152C143.795 37.4092 147.416 43.6816 147.416 50.4697V107.53C147.416 114.318 143.795 120.591 137.916 123.985L88.5 152.515C82.6214 155.909 75.3786 155.909 69.5 152.515L20.084 123.985C14.2054 120.591 10.584 114.318 10.584 107.53V50.4697C10.584 43.6816 14.2054 37.4092 20.084 34.0152L69.5 5.48483Z" fill="#5766FF"/>
<path d="M72.7852 98.9171L79.2601 106.577L85.735 98.9171C83.0279 97.3408 80.7804 95.0627 79.2601 92.3198C77.7397 95.0627 75.4922 97.3408 72.7852 98.9171Z" fill="white"/>
<path d="M79.2601 60.7649C83.1983 55.6631 88.207 51.5175 93.8784 48.5401C84.3679 45.6525 74.1493 45.6538 64.6406 48.541C70.314 51.5189 75.3226 55.6641 79.2601 60.7649Z" fill="white"/>
<path d="M64.1082 96.9424C71.2697 96.9424 77.0952 91.1168 77.0952 83.9553C77.0952 76.7939 71.2697 70.9683 64.1082 70.9683C56.9467 70.9683 51.1211 76.7939 51.1211 83.9553C51.1211 91.1168 56.9467 96.9424 64.1082 96.9424Z" fill="white"/>
<path d="M94.409 96.9424C101.57 96.9424 107.396 91.1168 107.396 83.9553C107.396 76.7939 101.57 70.9683 94.409 70.9683C87.2475 70.9683 81.4219 76.7939 81.4219 83.9553C81.4219 91.1168 87.2475 96.9424 94.409 96.9424Z" fill="white"/>
<path d="M79.2586 120.739C96.112 120.739 117.142 115.58 124.735 98.8256C128.958 89.4996 128.345 78.6876 123.092 69.9047C121.073 66.5282 118.146 63.0299 118.742 58.8455C118.742 58.8455 120.354 47.5291 120.363 47.463C120.611 45.7264 118.577 44.3197 117.017 45.3596L108.211 51.2486C106.275 52.538 103.783 52.6944 101.709 51.6565C101.008 51.3046 100.295 50.9834 99.5805 50.6666C92.0221 53.7151 85.5673 58.9146 81.0599 65.6745C80.2131 66.9446 78.3014 66.9407 77.4576 65.6751C72.9362 58.894 66.4569 53.6813 58.9508 50.6604C58.2317 50.9791 57.5141 51.3023 56.8081 51.6565C54.7344 52.6965 52.2381 52.5401 50.3061 51.2486C50.3061 51.2486 41.5186 45.3718 41.5001 45.3596C39.9698 44.3362 37.8943 45.6411 38.1539 47.4628C38.1539 47.4628 39.7737 58.8356 39.7752 58.8455C40.3608 62.9571 37.4157 66.5764 35.425 69.9048C30.1723 78.6876 29.5593 89.4996 33.7826 98.8255C41.3729 115.586 62.4264 120.739 79.2586 120.739ZM64.107 66.639C70.6221 66.639 76.3035 70.2593 79.2586 75.5906C82.2137 70.2593 87.8951 66.639 94.4102 66.639C103.958 66.639 111.726 74.4072 111.726 83.9551C111.726 93.503 103.958 101.271 94.4102 101.271C92.8576 101.271 91.3596 101.047 89.9269 100.662C89.9269 100.662 80.9586 111.271 80.9117 111.326C80.0646 112.328 78.4478 112.32 77.6056 111.326L68.5903 100.661C67.1576 101.047 65.6596 101.271 64.107 101.271C54.5591 101.271 46.7909 93.503 46.7909 83.9551C46.7909 74.4072 54.5591 66.639 64.107 66.639Z" fill="white"/>
<path fill-rule="evenodd" clip-rule="evenodd" d="M61.5124 77C65.1099 77 68.0249 79.9094 68.0249 83.5C68.0249 87.0907 65.1099 90 61.5124 90C57.9149 90 55 87.0907 55 83.5C55 82.653 55.166 81.8612 55.4428 81.1246C56.07 82.0269 57.1216 82.5977 58.2839 82.5977C60.2026 82.5977 61.7523 81.051 61.7523 79.136C61.7523 78.3442 61.4755 77.6076 61.0328 77.0184C61.1803 77.0184 61.3464 77.0184 61.494 77.0184L61.5124 77ZM97.4876 77C93.8901 77 90.9752 79.9094 90.9752 83.5C90.9752 87.0907 93.8901 90 97.4876 90C101.085 90 104 87.0907 104 83.5C104 82.653 103.834 81.8612 103.557 81.1246C102.93 82.0269 101.878 82.5977 100.716 82.5977C98.7974 82.5977 97.2477 81.051 97.2477 79.136C97.2477 78.3442 97.5245 77.6076 97.9672 77.0184C97.8197 77.0184 97.6536 77.0184 97.506 77.0184L97.4876 77Z" fill="#5766FF"/>
</svg>
