<svg width="21" height="15" viewBox="0 0 21 15" fill="none" xmlns="http://www.w3.org/2000/svg">
<g clip-path="url(#clip0_5563_303236)">
<path d="M30 0H0V15H30V0Z" fill="#41479B"/>
<path d="M1.19782 5.35698H0V4.75795L9.51615 0H10.714V0.598078L1.19782 5.35698Z" fill="white"/>
<path d="M0 0.59903L9.51615 5.35698H10.714V4.75795L1.19782 0H0V0.59903Z" fill="white"/>
<path d="M0 1.78613V3.57179H10.714V1.78613H0Z" fill="white"/>
<path d="M4.46484 5.35698H6.25051V0H4.46484V5.35698Z" fill="white"/>
<path d="M0 2.14258V3.21397H10.714V2.14258H0Z" fill="#CF142B"/>
<path d="M10.7149 4.95768V5.35695L7.14355 3.57129H7.9421L10.7149 4.95768Z" fill="#CF142B"/>
<path d="M6.34375 1.78566L9.91507 0H10.7136L7.1423 1.78566H6.34375Z" fill="#CF142B"/>
<path d="M3.57132 1.78566H2.77277L0 0.399274V0L3.57132 1.78566Z" fill="#CF142B"/>
<path d="M0.798548 5.35695H0L3.57132 3.57129H4.36987L0.798548 5.35695Z" fill="#CF142B"/>
<path d="M4.82129 0V5.35698H5.89269V0H4.82129Z" fill="#CF142B"/>
<path d="M16.3637 6.13965H13.9932C13.9932 6.13965 13.9932 9.20741 13.9932 10.4624C13.9932 11.4385 16.3637 12.4146 16.3637 12.4146C16.3637 12.4146 18.7342 11.4385 18.7342 10.4624C18.7342 9.20737 18.7342 6.13965 18.7342 6.13965H16.3637Z" fill="#73AF00"/>
<path d="M14.9754 9.4374C14.9754 9.4374 14.9622 9.3915 14.974 9.35004C14.9858 9.30857 14.9553 9.27055 14.9488 9.23458C14.931 9.13688 15.0139 9.1117 15.0183 9.02441C15.0183 9.02441 15.0775 9.08512 15.0554 9.14287C15.0331 9.20062 15.0879 9.20948 15.0806 9.26423C15.0732 9.31899 15.0124 9.37674 15.0184 9.42559L14.9754 9.4374Z" fill="#FF4B55"/>
<path d="M15.907 9.34501C15.8585 9.28447 15.7736 9.34968 15.7114 9.3971C15.7028 9.40374 15.6954 9.40883 15.6877 9.41441L15.4584 9.07566C15.4648 9.06598 15.4695 9.05503 15.4695 9.04256C15.4695 9.0088 15.4421 8.98145 15.4083 8.98145C15.3745 8.98145 15.3472 9.00876 15.3472 9.04256C15.3472 9.05507 15.3519 9.06602 15.3583 9.07566L15.1217 9.42507H14.9541C14.9541 9.42507 14.9472 9.52921 15.1301 9.54184C15.1537 9.57757 15.1874 9.60599 15.2276 9.62207C15.2087 9.62514 15.1935 9.63975 15.1935 9.65956V9.68404C15.1935 9.6856 15.1949 9.6865 15.1951 9.68802H15.6213C15.6215 9.68654 15.6229 9.68564 15.6229 9.68404V9.65956C15.6229 9.63954 15.6074 9.62461 15.5882 9.62186C15.6595 9.59315 15.7096 9.52642 15.7181 9.44714C15.7247 9.44221 15.7309 9.4377 15.7381 9.43225C15.7831 9.39771 15.8509 9.34513 15.8725 9.37265C15.8779 9.37938 15.8774 9.38311 15.8771 9.38446C15.8747 9.40046 15.8405 9.42343 15.8131 9.44185C15.7699 9.47084 15.7252 9.50095 15.7217 9.5436C15.7207 9.55579 15.7297 9.56633 15.7418 9.56748C15.7424 9.56748 15.7431 9.56748 15.7436 9.56748C15.755 9.56748 15.7646 9.55874 15.7656 9.54734C15.7674 9.52572 15.8063 9.49955 15.8377 9.47855C15.8776 9.45161 15.9153 9.42634 15.9207 9.39131C15.9232 9.37515 15.9185 9.35969 15.907 9.34501ZM15.5149 9.42507C15.5023 9.37692 15.4725 9.33065 15.4353 9.31392C15.455 9.30379 15.4689 9.28381 15.4689 9.26015C15.4689 9.22643 15.4416 9.19903 15.4078 9.19903C15.3741 9.19903 15.3467 9.22635 15.3467 9.26015C15.3467 9.28381 15.3605 9.30379 15.3802 9.31392C15.343 9.33061 15.3132 9.37688 15.3006 9.42507H15.1749L15.3945 9.10084C15.399 9.10191 15.4035 9.10363 15.4084 9.10363C15.4133 9.10363 15.4177 9.10191 15.4223 9.10084L15.6418 9.42507H15.5149Z" fill="#FFE15A"/>
<path d="M16.2121 7.37148C16.2121 7.37148 15.9913 7.30615 15.8926 8.07888C15.8926 8.07888 15.3522 8.76593 15.3348 8.80658C15.3174 8.84726 15.3334 9.13921 15.3915 9.11596C15.4496 9.0927 15.5542 8.95764 15.5484 8.85883C15.5425 8.76002 15.5871 8.70494 15.6311 8.65548C15.7139 8.56254 16.1802 8.14131 16.1976 8.04832C16.215 7.95542 16.2121 7.37148 16.2121 7.37148Z" fill="#FFC8B9"/>
<path d="M16.5552 7.22453C16.5552 7.22453 16.8966 7.17949 16.9968 7.52813C16.9968 7.52813 16.7165 7.6821 16.7513 7.88254C16.7862 8.08298 16.747 8.99812 16.747 8.99812C16.211 9.1724 15.9277 8.95452 15.9277 8.95452C15.9277 8.95452 16.0672 8.43596 16.0454 8.0133C16.0454 8.0133 15.919 7.91745 15.9496 7.80851C15.9801 7.69957 16.0585 7.57755 16.0847 7.48604C16.1108 7.39454 16.1805 7.242 16.3505 7.22892C16.5203 7.21579 16.5552 7.22453 16.5552 7.22453Z" fill="#F5F5F5"/>
<path d="M16.0269 8.85254C16.0269 8.85254 15.7597 9.86353 15.8527 11.2405C15.8527 11.2405 16.6864 11.3509 17.1396 11.1853C17.1396 11.1853 16.9043 9.53811 16.6777 8.89319L16.0269 8.85254Z" fill="#F5F5F5"/>
<path d="M16.1836 6.62891V7.04772C16.1836 7.09369 16.2209 7.13098 16.2669 7.13098H16.2743C16.3068 7.13098 16.3333 7.15735 16.3333 7.18992V7.29004C16.3333 7.29004 16.3894 7.43663 16.6077 7.2651V6.63202L16.1836 6.62891Z" fill="#FFC8B9"/>
<path d="M16.1334 6.54268C16.1198 6.57652 16.1341 6.66831 16.2176 6.66179C16.3219 6.65363 16.4478 6.65306 16.4761 6.76856C16.5025 6.87589 16.4849 7.14401 16.6011 7.16149C16.7173 7.17892 16.8491 7.10168 16.8465 6.87097C16.8444 6.66762 16.7114 6.42431 16.5255 6.46135C16.5255 6.46135 16.3606 6.34585 16.264 6.47587C16.2641 6.47587 16.1625 6.47009 16.1334 6.54268Z" fill="#8C5A28"/>
<path d="M16.9961 7.52832C16.9961 7.52832 17.115 8.31188 17.1094 8.3766C17.1036 8.44342 16.6881 9.08543 16.7114 9.1552C16.7346 9.22493 16.7578 9.31791 16.63 9.35277C16.5022 9.38764 16.5153 9.18354 16.5501 9.07895C16.585 8.97436 16.8769 8.41733 16.8769 8.35343C16.8769 8.28953 16.7113 7.87699 16.752 7.71429C16.7927 7.55154 16.9961 7.52832 16.9961 7.52832Z" fill="#FFC8B9"/>
<path d="M14.4529 6.96572C14.4529 6.96572 14.4396 6.91982 14.4515 6.87836C14.4633 6.83689 14.4328 6.79887 14.4263 6.7629C14.4086 6.6652 14.4915 6.64002 14.4959 6.55273C14.4959 6.55273 14.5551 6.61344 14.5329 6.67119C14.5107 6.72894 14.5655 6.7378 14.5581 6.79255C14.5507 6.84731 14.49 6.90506 14.4959 6.95391L14.4529 6.96572Z" fill="#FF4B55"/>
<path d="M15.3845 6.87235C15.3361 6.81181 15.2511 6.87703 15.1889 6.92444C15.1803 6.93109 15.1729 6.93617 15.1653 6.94175L14.9359 6.603C14.9424 6.59332 14.947 6.58237 14.947 6.5699C14.947 6.53615 14.9197 6.50879 14.8859 6.50879C14.8521 6.50879 14.8248 6.53611 14.8248 6.5699C14.8248 6.58241 14.8294 6.59336 14.8358 6.603L14.5992 6.95241H14.4317C14.4317 6.95241 14.4247 7.05655 14.6077 7.06918C14.6313 7.10491 14.6649 7.13333 14.7052 7.14941C14.6863 7.15249 14.671 7.16709 14.671 7.1869V7.21139C14.671 7.21294 14.6725 7.21385 14.6726 7.21536H15.0988C15.099 7.21389 15.1005 7.21299 15.1005 7.21139V7.1869C15.1005 7.16688 15.085 7.15195 15.0657 7.14921C15.1371 7.12049 15.1872 7.05376 15.1956 6.97448C15.2023 6.96956 15.2085 6.96505 15.2157 6.95959C15.2607 6.92506 15.3284 6.87247 15.3501 6.9C15.3554 6.90672 15.3549 6.91045 15.3547 6.91181C15.3522 6.9278 15.3181 6.95077 15.2906 6.96919C15.2474 6.99819 15.2028 7.02829 15.1992 7.07095C15.1982 7.08313 15.2072 7.09367 15.2193 7.09478C15.22 7.09478 15.2206 7.09478 15.2212 7.09478C15.2325 7.09478 15.2422 7.08604 15.2431 7.07464C15.2449 7.05302 15.2839 7.02686 15.3152 7.00586C15.3551 6.97891 15.3928 6.95364 15.3982 6.91862C15.4007 6.9025 15.3961 6.88699 15.3845 6.87235ZM14.9924 6.95241C14.9798 6.90426 14.95 6.858 14.9128 6.84126C14.9325 6.83113 14.9464 6.81116 14.9464 6.78749C14.9464 6.75377 14.9191 6.72638 14.8853 6.72638C14.8516 6.72638 14.8242 6.75369 14.8242 6.78749C14.8242 6.81116 14.8381 6.83113 14.8578 6.84126C14.8206 6.85795 14.7908 6.90422 14.7782 6.95241H14.6525L14.872 6.62819C14.8766 6.62925 14.881 6.63097 14.8859 6.63097C14.8908 6.63097 14.8952 6.62925 14.8998 6.62819L15.1194 6.95241H14.9924Z" fill="#FFE15A"/>
<path d="M14.4529 7.78994C14.4529 7.78994 14.4396 7.74404 14.4515 7.70258C14.4633 7.66111 14.4328 7.62309 14.4263 7.58712C14.4086 7.48942 14.4915 7.46423 14.4959 7.37695C14.4959 7.37695 14.5551 7.43766 14.5329 7.49541C14.5107 7.55316 14.5655 7.56202 14.5581 7.61677C14.5507 7.67153 14.49 7.72928 14.4959 7.77813L14.4529 7.78994Z" fill="#FF4B55"/>
<path d="M15.3845 7.69657C15.3361 7.63603 15.2511 7.70125 15.1889 7.74866C15.1803 7.7553 15.1729 7.76039 15.1653 7.76597L14.9359 7.42722C14.9424 7.41754 14.947 7.40659 14.947 7.39412C14.947 7.36037 14.9197 7.33301 14.8859 7.33301C14.8521 7.33301 14.8248 7.36032 14.8248 7.39412C14.8248 7.40663 14.8294 7.41758 14.8358 7.42722L14.5992 7.77663H14.4317C14.4317 7.77663 14.4247 7.88077 14.6077 7.8934C14.6313 7.92913 14.6649 7.95755 14.7052 7.97363C14.6863 7.97671 14.671 7.99131 14.671 8.01112V8.0356C14.671 8.03716 14.6725 8.03807 14.6726 8.03958H15.0988C15.099 8.03811 15.1005 8.0372 15.1005 8.0356V8.01112C15.1005 7.9911 15.085 7.97617 15.0657 7.97342C15.1371 7.94471 15.1872 7.87798 15.1956 7.7987C15.2023 7.79378 15.2085 7.78926 15.2157 7.78381C15.2607 7.74927 15.3284 7.69669 15.3501 7.72421C15.3554 7.73094 15.3549 7.73467 15.3547 7.73603C15.3522 7.75202 15.3181 7.77499 15.2906 7.79341C15.2474 7.82241 15.2028 7.85251 15.1992 7.89517C15.1982 7.90735 15.2072 7.91789 15.2193 7.91904C15.22 7.91904 15.2206 7.91904 15.2212 7.91904C15.2325 7.91904 15.2422 7.9103 15.2431 7.8989C15.2449 7.87728 15.2839 7.85112 15.3152 7.83012C15.3551 7.80317 15.3928 7.7779 15.3982 7.74288C15.4007 7.72663 15.3961 7.71117 15.3845 7.69657ZM14.9924 7.77659C14.9798 7.72844 14.95 7.68217 14.9128 7.66544C14.9325 7.65531 14.9464 7.63533 14.9464 7.61167C14.9464 7.57795 14.9191 7.55055 14.8853 7.55055C14.8516 7.55055 14.8242 7.57787 14.8242 7.61167C14.8242 7.63533 14.8381 7.65531 14.8578 7.66544C14.8206 7.68213 14.7908 7.7284 14.7782 7.77659H14.6525L14.872 7.45236C14.8766 7.45343 14.881 7.45515 14.8859 7.45515C14.8908 7.45515 14.8952 7.45343 14.8998 7.45236L15.1194 7.77659H14.9924Z" fill="#FFE15A"/>
<path d="M14.4529 8.61318C14.4529 8.61318 14.4396 8.56728 14.4515 8.52582C14.4633 8.48435 14.4328 8.44633 14.4263 8.41036C14.4086 8.31266 14.4915 8.28748 14.4959 8.2002C14.4959 8.2002 14.5551 8.2609 14.5329 8.31865C14.5107 8.3764 14.5655 8.38526 14.5581 8.44001C14.5507 8.49477 14.49 8.55252 14.4959 8.60137L14.4529 8.61318Z" fill="#FF4B55"/>
<path d="M15.3845 8.52079C15.3361 8.46025 15.2511 8.52546 15.1889 8.57288C15.1803 8.57952 15.1729 8.58461 15.1653 8.59019L14.9359 8.25144C14.9424 8.24176 14.947 8.23081 14.947 8.21834C14.947 8.18458 14.9197 8.15723 14.8859 8.15723C14.8521 8.15723 14.8248 8.18454 14.8248 8.21834C14.8248 8.23085 14.8294 8.2418 14.8358 8.25144L14.5992 8.60085H14.4317C14.4317 8.60085 14.4247 8.70499 14.6077 8.71762C14.6313 8.75335 14.6649 8.78177 14.7052 8.79785C14.6863 8.80092 14.671 8.81553 14.671 8.83534V8.85982C14.671 8.86138 14.6725 8.86228 14.6726 8.8638H15.0988C15.099 8.86233 15.1005 8.86142 15.1005 8.85982V8.83534C15.1005 8.81532 15.085 8.80039 15.0657 8.79764C15.1371 8.76893 15.1872 8.7022 15.1956 8.62292C15.2023 8.618 15.2085 8.61348 15.2157 8.60803C15.2607 8.57349 15.3284 8.52091 15.3501 8.54843C15.3554 8.55516 15.3549 8.55889 15.3547 8.56025C15.3522 8.57624 15.3181 8.59921 15.2906 8.61763C15.2474 8.64662 15.2028 8.67673 15.1992 8.71939C15.1982 8.73157 15.2072 8.74211 15.2193 8.74322C15.22 8.74322 15.2206 8.74322 15.2212 8.74322C15.2325 8.74322 15.2422 8.73448 15.2431 8.72308C15.2449 8.70146 15.2839 8.67529 15.3152 8.65429C15.3551 8.62735 15.3928 8.60208 15.3982 8.56705C15.4007 8.55089 15.3961 8.53543 15.3845 8.52079ZM14.9924 8.60081C14.9798 8.55266 14.95 8.50639 14.9128 8.48966C14.9325 8.47953 14.9464 8.45955 14.9464 8.43589C14.9464 8.40217 14.9191 8.37477 14.8853 8.37477C14.8516 8.37477 14.8242 8.40209 14.8242 8.43589C14.8242 8.45955 14.8381 8.47953 14.8578 8.48966C14.8206 8.50635 14.7908 8.55262 14.7782 8.60081H14.6525L14.872 8.27658C14.8766 8.27765 14.881 8.27937 14.8859 8.27937C14.8908 8.27937 14.8952 8.27765 14.8998 8.27658L15.1194 8.60081H14.9924Z" fill="#FFE15A"/>
<path d="M14.4529 10.2616C14.4529 10.2616 14.4396 10.2157 14.4515 10.1743C14.4633 10.1328 14.4328 10.0948 14.4263 10.0588C14.4086 9.9611 14.4915 9.93591 14.4959 9.84863C14.4959 9.84863 14.5551 9.90934 14.5329 9.96709C14.5108 10.0248 14.5655 10.0337 14.5581 10.0885C14.5507 10.1432 14.49 10.201 14.4959 10.2498L14.4529 10.2616Z" fill="#FF4B55"/>
<path d="M15.3845 10.1692C15.3361 10.1087 15.2511 10.1739 15.1889 10.2213C15.1803 10.228 15.1729 10.233 15.1653 10.2386L14.9359 9.89988C14.9424 9.8902 14.947 9.87925 14.947 9.86678C14.947 9.83302 14.9197 9.80566 14.8859 9.80566C14.8521 9.80566 14.8248 9.83302 14.8248 9.86678C14.8248 9.87929 14.8294 9.89024 14.8358 9.89988L14.5992 10.2493H14.4317C14.4317 10.2493 14.4247 10.3534 14.6077 10.3661C14.6313 10.4018 14.6649 10.4302 14.7052 10.4463C14.6863 10.4494 14.671 10.464 14.671 10.4838V10.5083C14.671 10.5098 14.6725 10.5107 14.6726 10.5122H15.0988C15.099 10.5108 15.1005 10.5099 15.1005 10.5083V10.4838C15.1005 10.4638 15.085 10.4488 15.0657 10.4461C15.1371 10.4174 15.1872 10.3506 15.1956 10.2714C15.2023 10.2664 15.2085 10.262 15.2157 10.2565C15.2607 10.2219 15.3284 10.1693 15.3501 10.1969C15.3554 10.2036 15.3549 10.2073 15.3547 10.2087C15.3522 10.2247 15.3181 10.2476 15.2906 10.2661C15.2474 10.2951 15.2028 10.3252 15.1992 10.3678C15.1982 10.38 15.2072 10.3905 15.2193 10.3917C15.22 10.3917 15.2206 10.3917 15.2212 10.3917C15.2325 10.3917 15.2422 10.383 15.2431 10.3716C15.2449 10.3499 15.2839 10.3238 15.3152 10.3028C15.3551 10.2758 15.3928 10.2506 15.3982 10.2155C15.4007 10.1993 15.3961 10.1838 15.3845 10.1692ZM14.9924 10.2493C14.9798 10.2011 14.95 10.1549 14.9128 10.1381C14.9325 10.128 14.9464 10.108 14.9464 10.0844C14.9464 10.0506 14.9191 10.0233 14.8853 10.0233C14.8516 10.0233 14.8242 10.0506 14.8242 10.0844C14.8242 10.108 14.8381 10.128 14.8578 10.1381C14.8206 10.1548 14.7908 10.2011 14.7782 10.2493H14.6525L14.872 9.92506C14.8766 9.92613 14.881 9.92785 14.8859 9.92785C14.8908 9.92785 14.8952 9.92613 14.8998 9.92506L15.1194 10.2493H14.9924Z" fill="#FFE15A"/>
<path d="M14.4529 11.0858C14.4529 11.0858 14.4396 11.0399 14.4515 10.9985C14.4633 10.957 14.4328 10.919 14.4263 10.883C14.4086 10.7853 14.4915 10.7601 14.4959 10.6729C14.4959 10.6729 14.5551 10.7336 14.5329 10.7913C14.5107 10.8491 14.5655 10.8579 14.5581 10.9127C14.5507 10.9674 14.49 11.0252 14.4959 11.074L14.4529 11.0858Z" fill="#FF4B55"/>
<path d="M15.3845 10.9934C15.3361 10.9329 15.2511 10.9981 15.1889 11.0455C15.1803 11.0522 15.1729 11.0573 15.1653 11.0628L14.9359 10.7241C14.9424 10.7144 14.947 10.7035 14.947 10.691C14.947 10.6572 14.9197 10.6299 14.8859 10.6299C14.8521 10.6299 14.8248 10.6572 14.8248 10.691C14.8248 10.7035 14.8294 10.7145 14.8358 10.7241L14.5992 11.0735H14.4317C14.4317 11.0735 14.4247 11.1776 14.6077 11.1903C14.6313 11.226 14.6649 11.2544 14.7052 11.2705C14.6863 11.2736 14.671 11.2882 14.671 11.308V11.3325C14.671 11.334 14.6725 11.3349 14.6726 11.3365H15.0988C15.099 11.335 15.1005 11.334 15.1005 11.3325V11.308C15.1005 11.288 15.085 11.273 15.0657 11.2703C15.1371 11.2416 15.1872 11.1749 15.1956 11.0956C15.2023 11.0907 15.2085 11.0861 15.2157 11.0807C15.2607 11.0461 15.3284 10.9936 15.3501 11.0211C15.3554 11.0278 15.3549 11.0315 15.3547 11.0329C15.3522 11.0489 15.3181 11.0719 15.2906 11.0903C15.2474 11.1193 15.2028 11.1494 15.1992 11.192C15.1982 11.2042 15.2072 11.2148 15.2193 11.2159C15.22 11.2159 15.2206 11.2159 15.2212 11.2159C15.2325 11.2159 15.2422 11.2072 15.2431 11.1958C15.2449 11.1742 15.2839 11.148 15.3152 11.127C15.3551 11.1 15.3928 11.0748 15.3982 11.0398C15.4007 11.0236 15.3961 11.0081 15.3845 10.9934ZM14.9924 11.0735C14.9798 11.0253 14.95 10.979 14.9128 10.9623C14.9325 10.9522 14.9464 10.9322 14.9464 10.9085C14.9464 10.8748 14.9191 10.8474 14.8853 10.8474C14.8516 10.8474 14.8242 10.8747 14.8242 10.9085C14.8242 10.9322 14.8381 10.9522 14.8578 10.9623C14.8206 10.979 14.7908 11.0253 14.7782 11.0735H14.6525L14.872 10.7492C14.8766 10.7503 14.881 10.752 14.8859 10.752C14.8908 10.752 14.8952 10.7503 14.8998 10.7492L15.1194 11.0735H14.9924Z" fill="#FFE15A"/>
<path d="M17.3201 6.96572C17.3201 6.96572 17.3068 6.91982 17.3186 6.87836C17.3305 6.83689 17.3 6.79887 17.2935 6.7629C17.2757 6.6652 17.3586 6.64002 17.3631 6.55273C17.3631 6.55273 17.4223 6.61344 17.4001 6.67119C17.3779 6.72894 17.4327 6.7378 17.4253 6.79255C17.4179 6.84731 17.3572 6.90506 17.3631 6.95391L17.3201 6.96572Z" fill="#FF4B55"/>
<path d="M18.2517 6.87235C18.2033 6.81181 18.1183 6.87703 18.0561 6.92444C18.0475 6.93109 18.0401 6.93617 18.0325 6.94175L17.8031 6.603C17.8095 6.59332 17.8142 6.58237 17.8142 6.5699C17.8142 6.53615 17.7869 6.50879 17.7531 6.50879C17.7193 6.50879 17.692 6.53611 17.692 6.5699C17.692 6.58241 17.6966 6.59336 17.703 6.603L17.4664 6.95241H17.2989C17.2989 6.95241 17.2919 7.05655 17.4749 7.06918C17.4984 7.10491 17.5321 7.13333 17.5724 7.14941C17.5534 7.15249 17.5382 7.16709 17.5382 7.1869V7.21139C17.5382 7.21294 17.5397 7.21385 17.5398 7.21536H17.966C17.9662 7.21389 17.9677 7.21299 17.9677 7.21139V7.1869C17.9677 7.16688 17.9522 7.15195 17.9329 7.14921C18.0042 7.12049 18.0544 7.05376 18.0628 6.97448C18.0695 6.96956 18.0757 6.96505 18.0829 6.95959C18.1279 6.92506 18.1956 6.87247 18.2172 6.9C18.2226 6.90672 18.2221 6.91045 18.2219 6.91181C18.2194 6.9278 18.1853 6.95077 18.1578 6.96919C18.1146 6.99819 18.07 7.02829 18.0664 7.07095C18.0654 7.08313 18.0744 7.09367 18.0865 7.09478C18.0871 7.09478 18.0878 7.09478 18.0884 7.09478C18.0997 7.09478 18.1094 7.08604 18.1103 7.07464C18.1121 7.05302 18.151 7.02686 18.1824 7.00586C18.2223 6.97891 18.26 6.95364 18.2654 6.91862C18.2679 6.9025 18.2633 6.88699 18.2517 6.87235ZM17.8597 6.95241C17.847 6.90426 17.8173 6.858 17.7801 6.84126C17.7997 6.83113 17.8136 6.81116 17.8136 6.78749C17.8136 6.75377 17.7863 6.72638 17.7525 6.72638C17.7188 6.72638 17.6914 6.75369 17.6914 6.78749C17.6914 6.81116 17.7053 6.83113 17.725 6.84126C17.6878 6.85795 17.658 6.90422 17.6454 6.95241H17.5197L17.7392 6.62819C17.7438 6.62925 17.7482 6.63097 17.7532 6.63097C17.7581 6.63097 17.7625 6.62925 17.7671 6.62819L17.9866 6.95241H17.8597Z" fill="#FFE15A"/>
<path d="M17.3201 7.78994C17.3201 7.78994 17.3068 7.74404 17.3186 7.70258C17.3305 7.66111 17.3 7.62309 17.2935 7.58712C17.2757 7.48942 17.3586 7.46423 17.3631 7.37695C17.3631 7.37695 17.4223 7.43766 17.4001 7.49541C17.3779 7.55316 17.4327 7.56202 17.4253 7.61677C17.4179 7.67153 17.3572 7.72928 17.3631 7.77813L17.3201 7.78994Z" fill="#FF4B55"/>
<path d="M18.2517 7.69657C18.2033 7.63603 18.1183 7.70125 18.0561 7.74866C18.0475 7.7553 18.0401 7.76039 18.0325 7.76597L17.8031 7.42722C17.8095 7.41754 17.8142 7.40659 17.8142 7.39412C17.8142 7.36037 17.7869 7.33301 17.7531 7.33301C17.7193 7.33301 17.692 7.36032 17.692 7.39412C17.692 7.40663 17.6966 7.41758 17.703 7.42722L17.4664 7.77663H17.2989C17.2989 7.77663 17.2919 7.88077 17.4749 7.8934C17.4984 7.92913 17.5321 7.95755 17.5724 7.97363C17.5534 7.97671 17.5382 7.99131 17.5382 8.01112V8.0356C17.5382 8.03716 17.5397 8.03807 17.5398 8.03958H17.966C17.9662 8.03811 17.9677 8.0372 17.9677 8.0356V8.01112C17.9677 7.9911 17.9522 7.97617 17.9329 7.97342C18.0042 7.94471 18.0544 7.87798 18.0628 7.7987C18.0695 7.79378 18.0757 7.78926 18.0829 7.78381C18.1279 7.74927 18.1956 7.69669 18.2172 7.72421C18.2226 7.73094 18.2221 7.73467 18.2219 7.73603C18.2194 7.75202 18.1853 7.77499 18.1578 7.79341C18.1146 7.82241 18.07 7.85251 18.0664 7.89517C18.0654 7.90735 18.0744 7.91789 18.0865 7.91904C18.0871 7.91904 18.0878 7.91904 18.0884 7.91904C18.0997 7.91904 18.1094 7.9103 18.1103 7.8989C18.1121 7.87728 18.151 7.85112 18.1824 7.83012C18.2223 7.80317 18.26 7.7779 18.2654 7.74288C18.2679 7.72663 18.2633 7.71117 18.2517 7.69657ZM17.8597 7.77659C17.847 7.72844 17.8173 7.68217 17.7801 7.66544C17.7997 7.65531 17.8136 7.63533 17.8136 7.61167C17.8136 7.57795 17.7863 7.55055 17.7525 7.55055C17.7188 7.55055 17.6914 7.57787 17.6914 7.61167C17.6914 7.63533 17.7053 7.65531 17.725 7.66544C17.6878 7.68213 17.658 7.7284 17.6454 7.77659H17.5197L17.7392 7.45236C17.7438 7.45343 17.7482 7.45515 17.7532 7.45515C17.7581 7.45515 17.7625 7.45343 17.7671 7.45236L17.9866 7.77659H17.8597Z" fill="#FFE15A"/>
<path d="M17.3201 8.61318C17.3201 8.61318 17.3068 8.56728 17.3186 8.52582C17.3305 8.48435 17.3 8.44633 17.2935 8.41036C17.2757 8.31266 17.3586 8.28748 17.3631 8.2002C17.3631 8.2002 17.4223 8.2609 17.4001 8.31865C17.3779 8.3764 17.4327 8.38526 17.4253 8.44001C17.4179 8.49477 17.3572 8.55252 17.3631 8.60137L17.3201 8.61318Z" fill="#FF4B55"/>
<path d="M18.2517 8.52079C18.2033 8.46025 18.1183 8.52546 18.0561 8.57288C18.0475 8.57952 18.0401 8.58461 18.0325 8.59019L17.8031 8.25144C17.8095 8.24176 17.8142 8.23081 17.8142 8.21834C17.8142 8.18458 17.7869 8.15723 17.7531 8.15723C17.7193 8.15723 17.692 8.18454 17.692 8.21834C17.692 8.23085 17.6966 8.2418 17.703 8.25144L17.4664 8.60085H17.2989C17.2989 8.60085 17.2919 8.70499 17.4749 8.71762C17.4984 8.75335 17.5321 8.78177 17.5724 8.79785C17.5534 8.80092 17.5382 8.81553 17.5382 8.83534V8.85982C17.5382 8.86138 17.5397 8.86228 17.5398 8.8638H17.966C17.9662 8.86233 17.9677 8.86142 17.9677 8.85982V8.83534C17.9677 8.81532 17.9522 8.80039 17.9329 8.79764C18.0042 8.76893 18.0544 8.7022 18.0628 8.62292C18.0695 8.618 18.0757 8.61348 18.0829 8.60803C18.1279 8.57349 18.1956 8.52091 18.2172 8.54843C18.2226 8.55516 18.2221 8.55889 18.2219 8.56025C18.2194 8.57624 18.1853 8.59921 18.1578 8.61763C18.1146 8.64662 18.07 8.67673 18.0664 8.71939C18.0654 8.73157 18.0744 8.74211 18.0865 8.74322C18.0871 8.74322 18.0878 8.74322 18.0884 8.74322C18.0997 8.74322 18.1094 8.73448 18.1103 8.72308C18.1121 8.70146 18.151 8.67529 18.1824 8.65429C18.2223 8.62735 18.26 8.60208 18.2654 8.56705C18.2679 8.55089 18.2633 8.53543 18.2517 8.52079ZM17.8597 8.60081C17.847 8.55266 17.8173 8.50639 17.7801 8.48966C17.7997 8.47953 17.8136 8.45955 17.8136 8.43589C17.8136 8.40217 17.7863 8.37477 17.7525 8.37477C17.7188 8.37477 17.6914 8.40209 17.6914 8.43589C17.6914 8.45955 17.7053 8.47953 17.725 8.48966C17.6878 8.50635 17.658 8.55262 17.6454 8.60081H17.5197L17.7392 8.27658C17.7438 8.27765 17.7482 8.27937 17.7532 8.27937C17.7581 8.27937 17.7625 8.27765 17.7671 8.27658L17.9866 8.60081H17.8597Z" fill="#FFE15A"/>
<path d="M17.3201 9.4374C17.3201 9.4374 17.3068 9.3915 17.3186 9.35004C17.3305 9.30857 17.3 9.27055 17.2935 9.23458C17.2757 9.13688 17.3586 9.1117 17.3631 9.02441C17.3631 9.02441 17.4223 9.08512 17.4001 9.14287C17.3779 9.20062 17.4327 9.20948 17.4253 9.26423C17.4179 9.31899 17.3572 9.37674 17.3631 9.42559L17.3201 9.4374Z" fill="#FF4B55"/>
<path d="M18.2517 9.34501C18.2033 9.28447 18.1183 9.34968 18.0561 9.3971C18.0475 9.40374 18.0401 9.40883 18.0325 9.41441L17.8031 9.07566C17.8095 9.06598 17.8142 9.05503 17.8142 9.04256C17.8142 9.0088 17.7869 8.98145 17.7531 8.98145C17.7193 8.98145 17.692 9.00876 17.692 9.04256C17.692 9.05507 17.6966 9.06602 17.703 9.07566L17.4664 9.42507H17.2989C17.2989 9.42507 17.2919 9.52921 17.4749 9.54184C17.4984 9.57757 17.5321 9.60599 17.5724 9.62207C17.5534 9.62514 17.5382 9.63975 17.5382 9.65956V9.68404C17.5382 9.6856 17.5397 9.6865 17.5398 9.68802H17.966C17.9662 9.68654 17.9677 9.68564 17.9677 9.68404V9.65956C17.9677 9.63954 17.9522 9.62461 17.9329 9.62186C18.0042 9.59315 18.0544 9.52642 18.0628 9.44714C18.0695 9.44221 18.0757 9.4377 18.0829 9.43225C18.1279 9.39771 18.1956 9.34513 18.2172 9.37265C18.2226 9.37938 18.2221 9.38311 18.2219 9.38446C18.2194 9.40046 18.1853 9.42343 18.1578 9.44185C18.1146 9.47084 18.07 9.50095 18.0664 9.5436C18.0654 9.55579 18.0744 9.56633 18.0865 9.56748C18.0871 9.56748 18.0878 9.56748 18.0884 9.56748C18.0997 9.56748 18.1094 9.55874 18.1103 9.54734C18.1121 9.52572 18.151 9.49955 18.1824 9.47855C18.2223 9.45161 18.26 9.42634 18.2654 9.39131C18.2679 9.37515 18.2633 9.35969 18.2517 9.34501ZM17.8597 9.42507C17.847 9.37692 17.8173 9.33065 17.7801 9.31392C17.7997 9.30379 17.8136 9.28381 17.8136 9.26015C17.8136 9.22643 17.7863 9.19903 17.7525 9.19903C17.7188 9.19903 17.6914 9.22635 17.6914 9.26015C17.6914 9.28381 17.7053 9.30379 17.725 9.31392C17.6878 9.33061 17.658 9.37688 17.6454 9.42507H17.5197L17.7392 9.10084C17.7438 9.10191 17.7482 9.10363 17.7532 9.10363C17.7581 9.10363 17.7625 9.10191 17.7671 9.10084L17.9866 9.42507H17.8597Z" fill="#FFE15A"/>
<path d="M17.3201 10.2616C17.3201 10.2616 17.3068 10.2157 17.3186 10.1743C17.3305 10.1328 17.3 10.0948 17.2935 10.0588C17.2757 9.9611 17.3586 9.93591 17.3631 9.84863C17.3631 9.84863 17.4223 9.90934 17.4001 9.96709C17.3779 10.0248 17.4327 10.0337 17.4253 10.0885C17.4179 10.1432 17.3572 10.201 17.3631 10.2498L17.3201 10.2616Z" fill="#FF4B55"/>
<path d="M18.2517 10.1692C18.2033 10.1087 18.1183 10.1739 18.0561 10.2213C18.0475 10.228 18.0401 10.233 18.0325 10.2386L17.8031 9.89988C17.8095 9.8902 17.8142 9.87925 17.8142 9.86678C17.8142 9.83302 17.7869 9.80566 17.7531 9.80566C17.7193 9.80566 17.692 9.83302 17.692 9.86678C17.692 9.87929 17.6966 9.89024 17.703 9.89988L17.4664 10.2493H17.2989C17.2989 10.2493 17.2919 10.3534 17.4749 10.3661C17.4984 10.4018 17.5321 10.4302 17.5724 10.4463C17.5534 10.4494 17.5382 10.464 17.5382 10.4838V10.5083C17.5382 10.5098 17.5397 10.5107 17.5398 10.5122H17.966C17.9662 10.5108 17.9677 10.5099 17.9677 10.5083V10.4838C17.9677 10.4638 17.9522 10.4488 17.9329 10.4461C18.0042 10.4174 18.0544 10.3506 18.0628 10.2714C18.0695 10.2664 18.0757 10.262 18.0829 10.2565C18.1279 10.2219 18.1956 10.1693 18.2172 10.1969C18.2226 10.2036 18.2221 10.2073 18.2219 10.2087C18.2194 10.2247 18.1853 10.2476 18.1578 10.2661C18.1146 10.2951 18.07 10.3252 18.0664 10.3678C18.0654 10.38 18.0744 10.3905 18.0865 10.3917C18.0871 10.3917 18.0878 10.3917 18.0884 10.3917C18.0997 10.3917 18.1094 10.383 18.1103 10.3716C18.1121 10.3499 18.151 10.3238 18.1824 10.3028C18.2223 10.2758 18.26 10.2506 18.2654 10.2155C18.2679 10.1993 18.2633 10.1838 18.2517 10.1692ZM17.8597 10.2493C17.847 10.2011 17.8173 10.1549 17.7801 10.1381C17.7997 10.128 17.8136 10.108 17.8136 10.0844C17.8136 10.0506 17.7863 10.0233 17.7525 10.0233C17.7188 10.0233 17.6914 10.0506 17.6914 10.0844C17.6914 10.108 17.7053 10.128 17.725 10.1381C17.6878 10.1548 17.658 10.2011 17.6454 10.2493H17.5197L17.7392 9.92506C17.7438 9.92613 17.7482 9.92785 17.7532 9.92785C17.7581 9.92785 17.7625 9.92613 17.7671 9.92506L17.9866 10.2493H17.8597Z" fill="#FFE15A"/>
<path d="M17.3201 11.0858C17.3201 11.0858 17.3068 11.0399 17.3186 10.9985C17.3305 10.957 17.3 10.919 17.2935 10.883C17.2757 10.7853 17.3586 10.7601 17.3631 10.6729C17.3631 10.6729 17.4223 10.7336 17.4001 10.7913C17.3779 10.8491 17.4327 10.8579 17.4253 10.9127C17.4179 10.9674 17.3572 11.0252 17.3631 11.074L17.3201 11.0858Z" fill="#FF4B55"/>
<path d="M18.2517 10.9934C18.2033 10.9329 18.1183 10.9981 18.0561 11.0455C18.0475 11.0522 18.0401 11.0573 18.0325 11.0628L17.8031 10.7241C17.8095 10.7144 17.8142 10.7035 17.8142 10.691C17.8142 10.6572 17.7869 10.6299 17.7531 10.6299C17.7193 10.6299 17.692 10.6572 17.692 10.691C17.692 10.7035 17.6966 10.7145 17.703 10.7241L17.4664 11.0735H17.2989C17.2989 11.0735 17.2919 11.1776 17.4749 11.1903C17.4984 11.226 17.5321 11.2544 17.5724 11.2705C17.5534 11.2736 17.5382 11.2882 17.5382 11.308V11.3325C17.5382 11.334 17.5397 11.3349 17.5398 11.3365H17.966C17.9662 11.335 17.9677 11.334 17.9677 11.3325V11.308C17.9677 11.288 17.9522 11.273 17.9329 11.2703C18.0042 11.2416 18.0544 11.1749 18.0628 11.0956C18.0695 11.0907 18.0757 11.0861 18.0829 11.0807C18.1279 11.0461 18.1956 10.9936 18.2172 11.0211C18.2226 11.0278 18.2221 11.0315 18.2219 11.0329C18.2194 11.0489 18.1853 11.0719 18.1578 11.0903C18.1146 11.1193 18.07 11.1494 18.0664 11.192C18.0654 11.2042 18.0744 11.2148 18.0865 11.2159C18.0871 11.2159 18.0878 11.2159 18.0884 11.2159C18.0997 11.2159 18.1094 11.2072 18.1103 11.1958C18.1121 11.1742 18.151 11.148 18.1824 11.127C18.2223 11.1 18.26 11.0748 18.2654 11.0398C18.2679 11.0236 18.2633 11.0081 18.2517 10.9934ZM17.8597 11.0735C17.847 11.0253 17.8173 10.979 17.7801 10.9623C17.7997 10.9522 17.8136 10.9322 17.8136 10.9085C17.8136 10.8748 17.7863 10.8474 17.7525 10.8474C17.7188 10.8474 17.6914 10.8747 17.6914 10.9085C17.6914 10.9322 17.7053 10.9522 17.725 10.9623C17.6878 10.979 17.658 11.0253 17.6454 11.0735H17.5197L17.7392 10.7492C17.7438 10.7503 17.7482 10.752 17.7532 10.752C17.7581 10.752 17.7625 10.7503 17.7671 10.7492L17.9866 11.0735H17.8597Z" fill="#FFE15A"/>
<path d="M18.734 6.13945C18.734 6.13945 18.734 9.20721 18.734 10.4622C18.734 11.4383 16.3635 12.4144 16.3635 12.4144C16.3635 12.4144 13.993 11.4383 13.993 10.4622C13.993 9.20717 13.993 6.13945 13.993 6.13945H16.3635H18.734ZM18.8735 6H18.734H16.3635H13.993H13.8535V6.13945V10.4622C13.8535 10.9186 14.2745 11.4101 15.1049 11.923C15.7004 12.2908 16.2858 12.5332 16.3104 12.5434L16.3635 12.5652L16.4165 12.5434C16.4411 12.5332 17.0265 12.2908 17.622 11.923C18.4524 11.4101 18.8734 10.9186 18.8734 10.4622V6.13945L18.8735 6Z" fill="#F5F5F5"/>
<path d="M18.8932 11.2314L19.5253 11.6674C18.7911 12.6093 17.647 13.2167 16.363 13.2167C15.079 13.2167 13.9349 12.6092 13.2007 11.6674L13.8328 11.2314C14.4275 11.9734 15.3404 12.4497 16.3629 12.4497C17.3856 12.4497 18.2985 11.9733 18.8932 11.2314ZM18.8655 11.043L18.7844 11.1442C18.1905 11.8852 17.3079 12.3102 16.3631 12.3102C15.4182 12.3102 14.5357 11.8852 13.9418 11.1442L13.8606 11.043L13.7538 11.1166L13.1217 11.5526L13 11.6365L13.0909 11.7531C13.8851 12.7717 15.0778 13.356 16.3631 13.356C17.6485 13.356 18.8412 12.7718 19.6353 11.7531L19.7262 11.6365L19.6045 11.5526L18.9724 11.1166L18.8655 11.043Z" fill="#F5F5F5"/>
<path d="M16.3634 13.2157C17.6474 13.2157 18.7914 12.6082 19.5257 11.6664L18.8936 11.2305C18.2989 11.9724 17.386 12.4488 16.3634 12.4488C15.3409 12.4488 14.4279 11.9724 13.8333 11.2305L13.2012 11.6664C13.9354 12.6083 15.0794 13.2157 16.3634 13.2157Z" fill="#FFE15A"/>
</g>
<defs>
<clipPath id="clip0_5563_303236">
<rect width="21" height="15" fill="white"/>
</clipPath>
</defs>
</svg>
